<?xml version="1.0"?>
<svg xmlns="http://www.w3.org/2000/svg" xmlns:xlink="http://www.w3.org/1999/xlink" xmlns:svgjs="http://svgjs.com/svgjs" version="1.1" width="512" height="512" x="0" y="0" viewBox="0 0 32 32" style="enable-background:new 0 0 512 512" xml:space="preserve"><g><path xmlns="http://www.w3.org/2000/svg" d="m16.71 10.79a1 1 0 0 0 -1.42 0l-5 5a1 1 0 0 0 1.42 1.42l3.29-3.3v12.09a1 1 0 0 0 2 0v-12.09l3.29 3.3a1 1 0 0 0 1.42 0 1 1 0 0 0 0-1.42z" fill="#ffffff" data-original="#000000" style=""/><path xmlns="http://www.w3.org/2000/svg" d="m26 5h-20a1 1 0 0 0 0 2h20a1 1 0 0 0 0-2z" fill="#ffffff" data-original="#000000" style=""/></g></svg>
